<svg width="24" height="24" viewBox="0 0 24 24" fill="none" xmlns="http://www.w3.org/2000/svg">
<path d="M11.999 7.37695C10.7726 7.37695 9.59651 7.86412 8.72934 8.73129C7.86217 9.59846 7.375 10.7746 7.375 12.001C7.375 13.2273 7.86217 14.4034 8.72934 15.2706C9.59651 16.1378 10.7726 16.625 11.999 16.625C13.2254 16.625 14.4015 16.1378 15.2687 15.2706C16.1358 14.4034 16.623 13.2273 16.623 12.001C16.623 10.7746 16.1358 9.59846 15.2687 8.73129C14.4015 7.86412 13.2254 7.37695 11.999 7.37695ZM11.999 15.004C11.2023 15.004 10.4382 14.6875 9.87485 14.1241C9.31149 13.5607 8.995 12.7967 8.995 12C8.995 11.2032 9.31149 10.4392 9.87485 9.8758C10.4382 9.31245 11.2023 8.99595 11.999 8.99595C12.7957 8.99595 13.5598 9.31245 14.1231 9.8758C14.6865 10.4392 15.003 11.2032 15.003 12C15.003 12.7967 14.6865 13.5607 14.1231 14.1241C13.5598 14.6875 12.7957 15.004 11.999 15.004Z" fill="#0D2738"/>
<path d="M16.8046 8.28491C17.3999 8.28491 17.8826 7.80227 17.8826 7.20691C17.8826 6.61154 17.3999 6.12891 16.8046 6.12891C16.2092 6.12891 15.7266 6.61154 15.7266 7.20691C15.7266 7.80227 16.2092 8.28491 16.8046 8.28491Z" fill="#0D2738"/>
<path d="M20.5349 6.1107C20.3034 5.51288 19.9496 4.96998 19.4962 4.51676C19.0428 4.06353 18.4998 3.70997 17.9019 3.4787C17.2022 3.21606 16.4631 3.07404 15.7159 3.0587C14.7529 3.0167 14.4479 3.0047 12.0059 3.0047C9.56391 3.0047 9.25091 3.0047 8.29591 3.0587C7.54929 3.07326 6.81066 3.2153 6.11191 3.4787C5.51384 3.7097 4.97067 4.06317 4.51724 4.51643C4.06381 4.96969 3.71013 5.51272 3.47891 6.1107C3.21621 6.81031 3.07452 7.54954 3.05991 8.2967C3.01691 9.2587 3.00391 9.5637 3.00391 12.0067C3.00391 14.4487 3.00391 14.7597 3.05991 15.7167C3.07491 16.4647 3.21591 17.2027 3.47891 17.9037C3.71078 18.5015 4.0648 19.0443 4.51834 19.4975C4.97188 19.9507 5.51497 20.3043 6.11291 20.5357C6.81034 20.8089 7.54928 20.9611 8.29791 20.9857C9.26091 21.0277 9.56591 21.0407 12.0079 21.0407C14.4499 21.0407 14.7629 21.0407 15.7179 20.9857C16.465 20.9705 17.2041 20.8288 17.9039 20.5667C18.5017 20.3349 19.0445 19.981 19.4979 19.5277C19.9512 19.0743 20.3051 18.5315 20.5369 17.9337C20.7999 17.2337 20.9409 16.4957 20.9559 15.7477C20.9989 14.7857 21.0119 14.4807 21.0119 12.0377C21.0119 9.5947 21.0119 9.2847 20.9559 8.3277C20.9443 7.56997 20.8018 6.81995 20.5349 6.1107ZM19.3169 15.6427C19.3105 16.219 19.2053 16.7899 19.0059 17.3307C18.8557 17.7196 18.6258 18.0727 18.331 18.3674C18.0361 18.6621 17.6829 18.8918 17.2939 19.0417C16.7591 19.2401 16.1943 19.3453 15.6239 19.3527C14.6739 19.3967 14.4059 19.4077 11.9699 19.4077C9.53191 19.4077 9.28291 19.4077 8.31491 19.3527C7.74483 19.3457 7.18023 19.2405 6.64591 19.0417C6.25559 18.8927 5.90091 18.6634 5.6048 18.3687C5.30868 18.0739 5.07774 17.7203 4.92691 17.3307C4.73035 16.7957 4.62522 16.2315 4.61591 15.6617C4.57291 14.7117 4.56291 14.4437 4.56291 12.0077C4.56291 9.5707 4.56291 9.3217 4.61591 8.3527C4.62237 7.77672 4.72756 7.20612 4.92691 6.6657C5.23191 5.8767 5.85691 5.2557 6.64591 4.9537C7.1805 4.75584 7.74493 4.65066 8.31491 4.6427C9.26591 4.5997 9.53291 4.5877 11.9699 4.5877C14.4069 4.5877 14.6569 4.5877 15.6239 4.6427C16.1943 4.64956 16.7593 4.75477 17.2939 4.9537C17.6828 5.10397 18.036 5.3339 18.3309 5.62873C18.6257 5.92356 18.8556 6.27677 19.0059 6.6657C19.2025 7.20065 19.3076 7.76486 19.3169 8.3347C19.3599 9.2857 19.3709 9.5527 19.3709 11.9897C19.3709 14.4257 19.3709 14.6877 19.3279 15.6437H19.3169V15.6427Z" fill="#0D2738"/>
</svg>
