<svg width="19" height="22" viewBox="0 0 19 22" fill="none" xmlns="http://www.w3.org/2000/svg">
<path d="M16.1542 4.11799C14.3772 2.33674 12.0107 1.35706 9.49576 1.35706C4.30469 1.35706 0.0805804 5.58116 0.0805804 10.7722C0.0805804 12.4305 0.51317 14.0506 1.33594 15.4798L0 20.3571L4.99174 19.0466C6.36585 19.7972 7.91384 20.1917 9.49152 20.1917H9.49576C14.6826 20.1917 19 15.9675 19 10.7765C19 8.26152 17.9312 5.89924 16.1542 4.11799ZM9.49576 18.6055C8.08772 18.6055 6.70937 18.228 5.50915 17.5155L5.225 17.3459L2.26473 18.122L3.05357 15.2338L2.86696 14.937C2.08237 13.6901 1.67098 12.2524 1.67098 10.7722C1.67098 6.45906 5.18259 2.94746 9.5 2.94746C11.5908 2.94746 13.5545 3.76174 15.0304 5.24188C16.5062 6.72201 17.4138 8.68563 17.4096 10.7765C17.4096 15.0939 13.8089 18.6055 9.49576 18.6055ZM13.7877 12.7443C13.5545 12.6256 12.3967 12.0573 12.1804 11.9809C11.9641 11.9004 11.8071 11.8622 11.6502 12.0997C11.4933 12.3372 11.0437 12.8631 10.9038 13.0242C10.7681 13.1812 10.6281 13.2024 10.3949 13.0836C9.01228 12.3923 8.10469 11.8495 7.19286 10.2845C6.95112 9.86889 7.4346 9.89857 7.88415 8.99947C7.96049 8.84255 7.92232 8.70683 7.86295 8.58808C7.80357 8.46933 7.33281 7.31152 7.13772 6.84076C6.94688 6.38273 6.75179 6.44634 6.60759 6.43786C6.47187 6.42938 6.31495 6.42938 6.15804 6.42938C6.00112 6.42938 5.74665 6.48875 5.53036 6.72201C5.31406 6.95951 4.70759 7.52781 4.70759 8.68563C4.70759 9.84344 5.55156 10.9631 5.66607 11.12C5.78482 11.2769 7.32433 13.6519 9.68661 14.674C11.1795 15.3187 11.7647 15.3738 12.5112 15.2635C12.965 15.1957 13.9022 14.6952 14.0973 14.1439C14.2924 13.5925 14.2924 13.1218 14.233 13.0242C14.1779 12.9182 14.021 12.8588 13.7877 12.7443Z" fill="#0C263A"/>
</svg>
